<?xml version="1.0" encoding="UTF-8"?>
<svg id="Camada_2" data-name="Camada 2" xmlns="http://www.w3.org/2000/svg" xmlns:xlink="http://www.w3.org/1999/xlink" viewBox="0 0 2312.07 2312.07">
  <defs>
    <style>
      .cls-1 {
        fill: url(#Gradiente_sem_nome_15);
        fill-rule: evenodd;
      }

      .cls-2 {
        fill: #f4f4f4;
        font-family: Figtree-SemiBold, Figtree;
        font-size: 287.62px;
        font-variation-settings: 'wght' 600;
        font-weight: 600;
      }
    </style>
    <linearGradient id="Gradiente_sem_nome_15" data-name="Gradiente sem nome 15" x1="1735.46" y1="1513.7" x2="564.47" y2="1513.7" gradientTransform="translate(0 2674.07) scale(1 -1)" gradientUnits="userSpaceOnUse">
      <stop offset="0" stop-color="#e95d5d"/>
      <stop offset="1" stop-color="#fd9e1c"/>
    </linearGradient>
  </defs>
  <g id="Camada_1-2" data-name="Camada 1">
    <g>
      <g>
        <text class="cls-2" transform="translate(2072.24 1197.29) rotate(98.8)"><tspan x="0" y="0">A</tspan></text>
        <text class="cls-2" transform="translate(2047.05 1377.91) rotate(110.74)"><tspan x="0" y="0">G</tspan></text>
        <text class="cls-2" transform="translate(1972.66 1570.41) rotate(122.27)"><tspan x="0" y="0">Ê</tspan></text>
        <text class="cls-2" transform="translate(1889.84 1708.26) rotate(133.93)"><tspan x="0" y="0">N</tspan></text>
        <text class="cls-2" transform="translate(1742.57 1861.59) rotate(146.72)"><tspan x="0" y="0">C</tspan></text>
        <text class="cls-2" transform="translate(1572.62 1968.11) rotate(155.35)"><tspan x="0" y="0">I</tspan></text>
        <text class="cls-2" transform="translate(1506.95 2003.67) rotate(163.83)"><tspan x="0" y="0">A</tspan></text>
        <text class="cls-2" transform="translate(1319.42 2053.7) rotate(171.93)"><tspan x="0" y="0"> </tspan></text>
        <text class="cls-2" transform="translate(1258.32 2066.01) rotate(179.07)"><tspan x="0" y="0">D</tspan></text>
        <text class="cls-2" transform="translate(1066.62 2067.27) rotate(-169.14)"><tspan x="0" y="0">E</tspan></text>
        <text class="cls-2" transform="translate(906.51 2033.75) rotate(-161.96)"><tspan x="0" y="0"> </tspan></text>
        <text class="cls-2" transform="translate(845.03 2019.32) rotate(-153.75)"><tspan x="0" y="0">V</tspan></text>
        <text class="cls-2" transform="translate(684.79 1942.97) rotate(-142.75)"><tspan x="0" y="0">A</tspan></text>
        <text class="cls-2" transform="translate(532.46 1825.32) rotate(-132.26)"><tspan x="0" y="0">L</tspan></text>
        <text class="cls-2" transform="translate(435.14 1725.28) rotate(-121.31)"><tspan x="0" y="0">O</tspan></text>
        <text class="cls-2" transform="translate(324.21 1540.65) rotate(-109.07)"><tspan x="0" y="0">R</tspan></text>
        <text class="cls-2" transform="translate(269.62 1372.54) rotate(-101.49)"><tspan x="0" y="0"> </tspan></text>
        <text class="cls-2" transform="translate(254.79 1309.98) rotate(-95.33)"><tspan x="0" y="0">•</tspan></text>
        <text class="cls-2" transform="translate(243.95 1178.79) rotate(-89.07)"><tspan x="0" y="0"> </tspan></text>
        <text class="cls-2" transform="translate(239.8 1115.54) rotate(-81.25)"><tspan x="0" y="0">A</tspan></text>
        <text class="cls-2" transform="translate(264.85 934.89) rotate(-69.31)"><tspan x="0" y="0">G</tspan></text>
        <text class="cls-2" transform="translate(339.08 742.34) rotate(-57.77)"><tspan x="0" y="0">Ê</tspan></text>
        <text class="cls-2" transform="translate(421.78 604.41) rotate(-46.12)"><tspan x="0" y="0">N</tspan></text>
        <text class="cls-2" transform="translate(568.94 450.95) rotate(-33.33)"><tspan x="0" y="0">C</tspan></text>
        <text class="cls-2" transform="translate(738.8 344.3) rotate(-24.69)"><tspan x="0" y="0">I</tspan></text>
        <text class="cls-2" transform="translate(804.43 308.69) rotate(-16.22)"><tspan x="0" y="0">A</tspan></text>
        <text class="cls-2" transform="translate(991.93 258.5) rotate(-8.11)"><tspan x="0" y="0"> </tspan></text>
        <text class="cls-2" transform="translate(1053.04 246.06) rotate(-.93)"><tspan x="0" y="0">D</tspan></text>
        <text class="cls-2" transform="translate(1244.72 244.73) rotate(10.81)"><tspan x="0" y="0">E</tspan></text>
        <text class="cls-2" transform="translate(1404.87 278.13) rotate(17.99)"><tspan x="0" y="0"> </tspan></text>
        <text class="cls-2" transform="translate(1466.35 292.51) rotate(26.21)"><tspan x="0" y="0">V</tspan></text>
        <text class="cls-2" transform="translate(1626.66 368.73) rotate(37.2)"><tspan x="0" y="0">A</tspan></text>
        <text class="cls-2" transform="translate(1779.07 486.24) rotate(47.69)"><tspan x="0" y="0">L</tspan></text>
        <text class="cls-2" transform="translate(1876.46 586.19) rotate(58.64)"><tspan x="0" y="0">O</tspan></text>
        <text class="cls-2" transform="translate(1987.55 770.75) rotate(70.88)"><tspan x="0" y="0">R</tspan></text>
        <text class="cls-2" transform="translate(2042.27 938.8) rotate(78.46)"><tspan x="0" y="0"> </tspan></text>
        <text class="cls-2" transform="translate(2057.17 1001.38) rotate(84.62)"><tspan x="0" y="0">•</tspan></text>
        <text class="cls-2" transform="translate(2068.13 1132.55) rotate(90.93)"><tspan x="0" y="0"> </tspan></text>
      </g>
      <path class="cls-1" d="M564.47,1552.17h220.11l61.63-140.87h308.16l52.83,140.87h211.31l316.96-783.6h-228.92l-184.89,484.25-184.89-484.25h-237.72l-334.57,783.6ZM916.65,1244.02h167.28l-88.04-220.11-79.24,220.11Z"/>
    </g>
  </g>
</svg>
