<?xml version="1.0" encoding="UTF-8"?>
<svg id="Camada_2" data-name="Camada 2" xmlns="http://www.w3.org/2000/svg" xmlns:xlink="http://www.w3.org/1999/xlink" viewBox="0 0 2167.2 606.2">
  <defs>
    <style>
      .cls-1 {
        fill: url(#Gradiente_sem_nome_15);
      }

      .cls-2 {
        fill: #fdb622;
      }

      .cls-3 {
        fill: #f5f5f5;
      }
    </style>
    <linearGradient id="Gradiente_sem_nome_15" data-name="Gradiente sem nome 15" x1="0" y1="303.1" x2="900.41" y2="303.1" gradientUnits="userSpaceOnUse">
      <stop offset="0" stop-color="#e95d5d"/>
      <stop offset="1" stop-color="#fd9e1c"/>
    </linearGradient>
  </defs>
  <g id="Camada_1-2" data-name="Camada 1">
    <g>
      <g>
        <path class="cls-3" d="M1096.22,137.66h-49.75l-79.27,187.53h54.27l13.3-33.25h71.83l13.57,33.25h55.33l-79.27-187.53ZM1049.94,251.78l21.02-52.94,20.75,52.94h-41.77Z"/>
        <path class="cls-3" d="M1263.28,328.92c33.78,0,61.18-12.5,80.87-28.73v-83.79h-85.66v37.77h36.71v22.61c-7.71,5.05-17.29,7.71-29.79,7.71-29.53,0-50.54-21.55-50.54-51.61v-.53c0-28.46,20.75-51.07,47.62-51.07,18.36,0,31.66,6.38,44.96,17.56l30.33-36.44c-19.69-17.02-42.83-27.13-75.55-27.13-57.73,0-100.29,42.56-100.29,96.83v.53c0,56.39,43.36,96.29,101.35,96.29Z"/>
        <polygon class="cls-3" points="1510.68 281.31 1410.65 281.31 1410.65 251.78 1500.04 251.78 1500.04 211.08 1410.65 211.08 1410.65 182.88 1509.35 182.88 1509.35 138.99 1359.58 138.99 1359.58 325.2 1510.68 325.2 1510.68 281.31"/>
        <polygon class="cls-3" points="1434.6 110.26 1456.94 126.49 1489.4 126.49 1455.35 82.6 1414.38 82.6 1380.33 126.49 1412.25 126.49 1434.6 110.26"/>
        <polygon class="cls-3" points="1574.79 223.05 1654.33 325.2 1699.55 325.2 1699.55 138.99 1648.47 138.99 1648.47 237.41 1571.86 138.99 1523.71 138.99 1523.71 325.2 1574.79 325.2 1574.79 223.05"/>
        <path class="cls-3" d="M1808.88,328.92c41.23,0,64.91-17.82,82.47-42.03l-38.84-27.66c-11.17,13.57-22.61,22.61-42.03,22.61-26.07,0-44.43-21.81-44.43-49.74v-.53c0-27.13,18.36-49.21,44.43-49.21,17.82,0,30.06,8.51,40.7,21.81l38.84-30.06c-16.49-22.88-40.97-38.84-79.01-38.84-56.4,0-98.16,42.56-98.16,96.83v.53c0,55.6,42.83,96.29,96.03,96.29Z"/>
        <rect class="cls-3" x="1901.19" y="138.99" width="51.87" height="186.2"/>
        <path class="cls-3" d="M2026.48,291.95h71.83l13.57,33.25h55.33l-79.27-187.53h-49.75l-79.27,187.53h54.27l13.3-33.25ZM2062.66,198.84l20.75,52.94h-41.77l21.02-52.94Z"/>
        <path class="cls-3" d="M1093.81,371.63c-8.17-7.75-17.91-13.82-29.21-18.19-11.3-4.37-23.72-6.56-37.25-6.56h-60.15v173.26h60.15c13.53,0,25.95-2.23,37.25-6.68,11.3-4.46,21.04-10.56,29.21-18.32,8.17-7.75,14.48-16.95,18.94-27.6,4.46-10.64,6.68-22.07,6.68-34.28s-2.23-23.6-6.68-34.16c-4.46-10.56-10.77-19.72-18.94-27.47ZM1094.06,460.73c-3.38,8.25-8.17,15.47-14.36,21.66-6.19,6.19-13.74,11.01-22.65,14.48-8.91,3.47-18.81,5.2-29.7,5.2h-40.59v-137.12h40.59c10.89,0,20.79,1.78,29.7,5.32,8.91,3.55,16.46,8.42,22.65,14.6,6.19,6.19,10.97,13.49,14.36,21.9,3.38,8.42,5.07,17.41,5.07,26.98s-1.69,18.73-5.07,26.98Z"/>
        <polygon class="cls-3" points="1167.95 441.67 1262.5 441.67 1262.5 423.85 1167.95 423.85 1167.95 364.7 1273.64 364.7 1273.64 346.87 1148.39 346.87 1148.39 520.13 1274.88 520.13 1274.88 502.31 1167.95 502.31 1167.95 441.67"/>
        <polygon class="cls-3" points="1467.45 346.87 1428.09 456.52 1388.74 346.87 1335.02 346.87 1405.32 521.37 1449.88 521.37 1520.17 346.87 1467.45 346.87"/>
        <path class="cls-3" d="M1559.78,345.64l-73.76,174.5h50.5l12.38-30.94h66.83l12.62,30.94h51.49l-73.76-174.5h-46.29ZM1563,451.82l19.55-49.26,19.31,49.26h-38.86Z"/>
        <polygon class="cls-3" points="1732.3 346.87 1684.28 346.87 1684.28 520.13 1816.21 520.13 1816.21 478.06 1732.3 478.06 1732.3 346.87"/>
        <path class="cls-3" d="M1902.11,343.41c-53.47,0-93.56,40.34-93.56,90.1v.5c0,49.75,39.6,89.6,93.07,89.6s93.56-40.34,93.56-90.1v-.49c0-49.75-39.6-89.6-93.07-89.6ZM1946.17,434c0,25-17.57,46.29-44.06,46.29s-44.31-21.78-44.31-46.78v-.49c0-25,17.57-46.29,43.81-46.29s44.55,21.78,44.55,46.78v.5Z"/>
        <path class="cls-3" d="M2161.51,406.52v-.5c0-17.08-5.2-30.44-15.35-40.34-11.63-11.88-29.95-18.81-56.44-18.81h-81.93v173.26h48.02v-52.47h21.04l34.9,52.47h55.45l-41.34-60.39c21.53-9.16,35.64-26.73,35.64-53.22ZM2113.24,409.5c0,12.62-9.41,20.54-25.74,20.54h-31.68v-41.58h31.44c16.09,0,25.99,6.93,25.99,20.54v.5Z"/>
      </g>
      <g>
        <g>
          <path class="cls-2" d="M256.01,0h186.95l136.98,380.92L716.91,0h183.5l-244.67,606.2h-161.58L256.01,0Z"/>
          <polygon class="cls-3" points="400.48 368.21 268.16 368.21 334.73 200.53 256.01 0 0 606.2 175.9 606.2 219.02 498.41 451.54 498.41 400.48 368.21"/>
        </g>
        <g>
          <path class="cls-1" d="M256.01,0h186.95l136.98,380.92L716.91,0h183.5l-244.67,606.2h-161.58L256.01,0Z"/>
          <polygon class="cls-1" points="400.48 368.21 268.16 368.21 334.73 200.53 256.01 0 0 606.2 175.9 606.2 219.02 498.41 451.54 498.41 400.48 368.21"/>
        </g>
      </g>
    </g>
  </g>
</svg>
